<svg xmlns="http://www.w3.org/2000/svg" viewBox="0 0 800 600" fill="none">
  <defs>
    <radialGradient id="bg" cx="50%" cy="50%" r="60%"><stop offset="0%" stop-color="#0f172a"/><stop offset="100%" stop-color="#020617"/></radialGradient>
    <filter id="glow"><feGaussianBlur stdDeviation="3" result="blur"/><feMerge><feMergeNode in="blur"/><feMergeNode in="SourceGraphic"/></feMerge></filter>
    <filter id="glow2"><feGaussianBlur stdDeviation="4" result="blur"/><feMerge><feMergeNode in="blur"/><feMergeNode in="SourceGraphic"/></feMerge></filter>
  </defs>
  <rect width="800" height="600" fill="url(#bg)"/>
  <ellipse cx="400" cy="395" rx="340" ry="160" fill="#052e16"/>
  <circle cx="280" cy="320" r="18" fill="#22c55e" opacity="0.5" filter="url(#glow2)"/>
  <circle cx="350" cy="290" r="16" fill="#22c55e" opacity="0.45" filter="url(#glow)"/>
  <circle cx="480" cy="310" r="17" fill="#22c55e" opacity="0.5" filter="url(#glow2)"/>
  <circle cx="550" cy="360" r="14" fill="#10b981" opacity="0.55" filter="url(#glow)"/>
  <circle cx="230" cy="380" r="15" fill="#10b981" opacity="0.5" filter="url(#glow)"/>
  <circle cx="340" cy="410" r="13" fill="#10b981" opacity="0.55" filter="url(#glow)"/>
  <circle cx="500" cy="430" r="12" fill="#10b981" opacity="0.45" filter="url(#glow)"/>
  <circle cx="420" cy="370" r="10" fill="#22c55e" opacity="0.4" filter="url(#glow)"/>
  <circle cx="580" cy="400" r="9" fill="#10b981" opacity="0.4" filter="url(#glow)"/>
  <circle cx="300" cy="450" r="8" fill="#10b981" opacity="0.35" filter="url(#glow)"/>
  <path d="M280 320 Q310 300 350 290 Q420 280 480 310" stroke="#22c55e" stroke-width="1.5" opacity="0.35" fill="none"/>
  <path d="M230 380 Q270 420 340 410 Q380 400 420 370" stroke="#10b981" stroke-width="1.2" opacity="0.3" fill="none"/>
  <path d="M480 310 Q520 340 550 360" stroke="#10b981" stroke-width="1.2" opacity="0.25" fill="none"/>
  <path d="M340 410 Q390 440 500 430" stroke="#10b981" stroke-width="1" opacity="0.2" fill="none"/>
  <text x="400" y="300" text-anchor="middle" fill="#0a1e14" font-family="system-ui,sans-serif" font-size="72" font-weight="700">DAY 09</text>
  <text x="400" y="340" text-anchor="middle" fill="#052e16" font-family="system-ui,sans-serif" font-size="16" font-weight="400">Primordia Formation</text>
</svg>
